<svg width="578" height="578" viewBox="0 0 578 578" fill="none" xmlns="http://www.w3.org/2000/svg">
<path d="M90.0524 348.996C94.1868 353.961 96.1824 360.364 95.6012 366.799L90.5148 401.479C88.9791 412.585 91.8418 423.852 98.4927 432.878C105.144 441.905 115.057 447.976 126.12 449.8L159.412 455.926C165.741 457.665 171.136 461.815 174.44 467.486L190.509 497.08C195.643 506.97 204.471 514.436 215.076 517.856C225.682 521.275 237.209 520.373 247.153 515.345L277.44 500.664C280.309 499.289 283.449 498.576 286.63 498.576C289.811 498.576 292.952 499.289 295.82 500.664L326.339 515.576C336.371 520.446 347.899 521.24 358.504 517.791C369.109 514.343 377.966 506.919 383.214 497.08L399.282 466.562C402.587 460.891 407.982 456.741 414.31 455.002L447.603 448.875C458.565 446.865 468.345 440.743 474.942 431.761C481.539 422.778 484.454 411.615 483.092 400.554L478.7 365.874C478.338 362.684 478.644 359.454 479.6 356.389C480.555 353.324 482.138 350.491 484.248 348.072L508.64 323.68C516.376 315.609 520.696 304.862 520.696 293.682C520.696 282.502 516.376 271.754 508.64 263.684L484.711 239.292C480.632 234.297 478.643 227.918 479.162 221.49L484.133 186.81C485.657 175.678 482.741 164.395 476.013 155.396C469.286 146.398 459.289 140.408 448.181 138.72L414.888 132.593C408.582 130.81 403.202 126.672 399.86 121.033L383.792 91.4396C378.634 81.5728 369.813 74.1216 359.223 70.6851C348.632 67.2487 337.117 68.1011 327.148 73.0592L296.514 88.0872C293.665 89.4598 290.544 90.1726 287.382 90.1726C284.219 90.1726 281.098 89.4598 278.249 88.0872L247.731 73.0592C237.737 68.2505 226.275 67.4772 215.726 70.9003C205.177 74.3233 196.353 81.6792 191.087 91.4396L174.903 121.958C171.635 127.613 166.282 131.763 159.99 133.518L127.16 138.72C116.177 140.704 106.369 146.815 99.7486 155.8C93.128 164.785 90.1964 175.963 91.5552 187.041L96.0636 221.721C96.4778 228.137 94.5011 234.479 90.5148 239.523L66.1232 264.608C58.3867 272.679 54.0674 283.427 54.0674 294.607C54.0674 305.786 58.3867 316.534 66.1232 324.605L90.0524 348.996Z" fill="#191B28"/>
<path d="M318.478 286.457C314.46 282.602 309.709 279.592 304.506 277.606C299.304 275.621 293.756 274.699 288.191 274.897C281.918 274.902 275.723 276.283 270.042 278.943C264.512 281.558 259.739 285.536 256.17 290.503C255.664 282.085 257.087 273.664 260.331 265.88H241.951C239.246 275.506 237.961 285.476 238.136 295.474C237.149 311.291 241.73 326.955 251.083 339.748C255.353 344.982 260.783 349.149 266.943 351.918C273.103 354.687 279.824 355.982 286.572 355.701C292.263 355.929 297.942 355.025 303.28 353.041C308.618 351.056 313.509 348.031 317.669 344.141C325.187 336.447 329.462 326.159 329.613 315.403C329.764 304.646 325.777 294.243 318.478 286.341V286.457ZM303.334 331.888C298.653 336.327 292.446 338.802 285.994 338.802C279.542 338.802 273.336 336.327 268.654 331.888C266.314 329.807 264.459 327.238 263.22 324.361C261.982 321.485 261.39 318.371 261.487 315.241C261.406 312.066 261.98 308.908 263.173 305.964C264.367 303.021 266.154 300.355 268.423 298.132C270.701 295.913 273.396 294.168 276.352 292.997C279.309 291.826 282.468 291.253 285.648 291.312C292.066 291.164 298.288 293.528 302.988 297.901C305.316 300.065 307.173 302.686 308.443 305.6C309.713 308.514 310.368 311.658 310.368 314.837C310.368 318.015 309.713 321.16 308.443 324.074C307.173 326.987 305.316 329.608 302.988 331.772L303.334 331.888Z" fill="white"/>
<path d="M266.805 256.054C269.252 253.296 272.262 251.095 275.632 249.599C279.002 248.103 282.654 247.348 286.341 247.384C290.586 246.864 294.887 247.703 298.625 249.78C302.364 251.857 305.348 255.065 307.149 258.944C307.548 259.716 307.858 260.53 308.074 261.372C309.077 263.027 310.563 264.335 312.332 265.12C314.1 265.906 316.067 266.132 317.968 265.767C319.868 265.401 321.612 264.463 322.963 263.079C324.315 261.694 325.211 259.928 325.53 258.019C325.586 257.559 325.586 257.093 325.53 256.632C325.65 255.75 325.65 254.855 325.53 253.973C325.309 253.336 325.038 252.718 324.72 252.124C322.283 246.264 318.284 241.186 313.16 237.442C305.64 232.55 296.813 230.051 287.844 230.275C281.596 230.029 275.369 231.13 269.584 233.504C263.8 235.878 258.594 239.468 254.32 244.032C248.44 250.169 244.188 257.68 241.951 265.88H260.331C261.914 262.26 264.103 258.937 266.805 256.054Z" fill="#06DF86"/>
<path d="M174.787 299.404C174.983 299.309 175.147 299.162 175.263 298.978C175.378 298.794 175.439 298.581 175.439 298.364C175.439 298.146 175.378 297.934 175.263 297.75C175.147 297.566 174.983 297.418 174.787 297.323L159.528 296.052C159.528 296.052 158.834 296.052 158.603 295.358L152.708 281.37C152.619 281.167 152.474 280.994 152.289 280.871C152.105 280.748 151.889 280.68 151.667 280.677C151.442 280.664 151.219 280.725 151.031 280.85C150.844 280.975 150.702 281.158 150.627 281.37L144.616 295.358C144.547 295.552 144.423 295.722 144.258 295.845C144.094 295.969 143.896 296.04 143.691 296.052L128.547 297.323C128.33 297.369 128.129 297.471 127.964 297.619C127.799 297.766 127.675 297.955 127.605 298.165C127.535 298.375 127.521 298.6 127.564 298.818C127.608 299.035 127.708 299.237 127.854 299.404L139.414 309.346C139.518 309.499 139.574 309.68 139.574 309.866C139.574 310.051 139.518 310.233 139.414 310.386L135.946 325.298C135.915 325.514 135.946 325.734 136.035 325.933C136.124 326.131 136.268 326.301 136.449 326.422C136.63 326.543 136.842 326.61 137.06 326.616C137.277 326.621 137.492 326.565 137.68 326.454L150.28 318.594H151.436L164.499 326.454C164.676 326.589 164.891 326.664 165.114 326.668C165.336 326.671 165.554 326.603 165.735 326.474C165.916 326.345 166.051 326.161 166.12 325.949C166.188 325.738 166.188 325.509 166.117 325.298L162.649 310.386C162.576 310.222 162.538 310.045 162.538 309.866C162.538 309.687 162.576 309.509 162.649 309.346L174.787 299.404Z" fill="#06DF86"/>
<path d="M443.326 299.404C443.472 299.237 443.572 299.035 443.615 298.818C443.659 298.6 443.645 298.375 443.575 298.165C443.505 297.955 443.381 297.766 443.216 297.619C443.05 297.471 442.849 297.369 442.632 297.323L427.72 296.052C427.502 296.035 427.291 295.963 427.109 295.842C426.926 295.72 426.779 295.553 426.68 295.358L420.784 281.37C420.709 281.158 420.567 280.975 420.38 280.85C420.192 280.725 419.969 280.664 419.744 280.677C419.525 280.693 419.315 280.765 419.132 280.887C418.95 281.008 418.802 281.175 418.703 281.37L412.808 295.358C412.808 295.358 412.808 296.052 411.883 296.052L396.624 297.323C396.428 297.418 396.263 297.566 396.148 297.75C396.033 297.934 395.971 298.146 395.971 298.364C395.971 298.581 396.033 298.794 396.148 298.978C396.263 299.162 396.428 299.309 396.624 299.404L408.184 309.346C408.288 309.499 408.344 309.68 408.344 309.866C408.344 310.051 408.288 310.233 408.184 310.386L404.6 325.298C404.53 325.509 404.529 325.738 404.598 325.949C404.666 326.161 404.801 326.345 404.982 326.474C405.163 326.603 405.381 326.671 405.604 326.668C405.826 326.664 406.042 326.589 406.218 326.454L419.281 318.594H420.437L433.5 326.454C433.687 326.565 433.902 326.621 434.12 326.616C434.338 326.61 434.549 326.543 434.731 326.422C434.912 326.301 435.055 326.131 435.144 325.933C435.233 325.734 435.264 325.514 435.234 325.298L431.766 310.386C431.662 310.233 431.606 310.051 431.606 309.866C431.606 309.68 431.662 309.499 431.766 309.346L443.326 299.404Z" fill="#06DF86"/>
<path d="M205.1 439.25C204.467 439.25 203.933 439.033 203.5 438.6C203.067 438.167 202.85 437.633 202.85 437V407.15C202.85 406.25 203.167 405.483 203.8 404.85C204.433 404.183 205.2 403.85 206.1 403.85H207.75C208.417 403.85 209.017 404.05 209.55 404.45C210.117 404.85 210.533 405.35 210.8 405.95L222.15 434.25L233.5 405.95C233.767 405.35 234.167 404.85 234.7 404.45C235.267 404.05 235.883 403.85 236.55 403.85H238.2C239.1 403.85 239.867 404.183 240.5 404.85C241.133 405.483 241.45 406.25 241.45 407.15V437C241.45 437.633 241.233 438.167 240.8 438.6C240.367 439.033 239.833 439.25 239.2 439.25C238.567 439.25 238.017 439.033 237.55 438.6C237.117 438.167 236.9 437.633 236.9 437V408.6L225.35 437.15C225.083 437.783 224.65 438.3 224.05 438.7C223.483 439.067 222.85 439.25 222.15 439.25C221.45 439.25 220.8 439.067 220.2 438.7C219.633 438.3 219.217 437.783 218.95 437.15L207.4 408.6V437C207.4 437.633 207.167 438.167 206.7 438.6C206.267 439.033 205.733 439.25 205.1 439.25ZM260.807 439.5C258.241 439.5 255.991 438.95 254.057 437.85C252.124 436.75 250.624 435.2 249.557 433.2C248.524 431.167 248.007 428.85 248.007 426.25C248.007 423.65 248.524 421.35 249.557 419.35C250.624 417.317 252.124 415.75 254.057 414.65C255.991 413.55 258.241 413 260.807 413C263.341 413 265.574 413.55 267.507 414.65C269.441 415.75 270.941 417.317 272.007 419.35C273.074 421.35 273.607 423.65 273.607 426.25C273.607 428.85 273.074 431.167 272.007 433.2C270.941 435.2 269.441 436.75 267.507 437.85C265.574 438.95 263.341 439.5 260.807 439.5ZM260.807 435.35C262.174 435.35 263.474 435.033 264.707 434.4C265.974 433.767 267.007 432.767 267.807 431.4C268.641 430.033 269.057 428.3 269.057 426.2C269.057 424.133 268.641 422.417 267.807 421.05C267.007 419.683 265.974 418.7 264.707 418.1C263.474 417.467 262.174 417.15 260.807 417.15C259.407 417.15 258.074 417.467 256.807 418.1C255.574 418.7 254.557 419.683 253.757 421.05C252.957 422.417 252.557 424.133 252.557 426.2C252.557 428.3 252.957 430.033 253.757 431.4C254.557 432.767 255.574 433.767 256.807 434.4C258.074 435.033 259.407 435.35 260.807 435.35ZM282.227 439.25C281.594 439.25 281.061 439.033 280.627 438.6C280.194 438.167 279.977 437.633 279.977 437V415.55C279.977 414.917 280.194 414.383 280.627 413.95C281.061 413.483 281.594 413.25 282.227 413.25C282.861 413.25 283.394 413.483 283.827 413.95C284.294 414.383 284.527 414.917 284.527 415.55V417.6C285.794 416.2 287.161 415.083 288.627 414.25C290.094 413.417 291.827 413 293.827 413C295.661 413 297.244 413.433 298.577 414.3C299.944 415.167 300.977 416.35 301.677 417.85C302.411 419.35 302.777 421 302.777 422.8V437C302.777 437.633 302.544 438.167 302.077 438.6C301.644 439.033 301.111 439.25 300.477 439.25C299.844 439.25 299.311 439.033 298.877 438.6C298.444 438.167 298.227 437.633 298.227 437V423.3C298.227 419.233 296.394 417.2 292.727 417.2C291.061 417.2 289.561 417.633 288.227 418.5C286.927 419.367 285.694 420.533 284.527 422V437C284.527 437.633 284.294 438.167 283.827 438.6C283.394 439.033 282.861 439.25 282.227 439.25ZM318.66 439.5C313.793 439.5 311.36 437.3 311.36 432.9V417.4H307.81C307.543 417.4 307.31 417.317 307.11 417.15C306.943 416.95 306.86 416.717 306.86 416.45C306.86 416.117 307.01 415.833 307.31 415.6L314.11 408.95C314.41 408.65 314.693 408.5 314.96 408.5C315.227 408.5 315.443 408.6 315.61 408.8C315.81 409 315.91 409.233 315.91 409.5V413.5H321.56C322.127 413.5 322.593 413.683 322.96 414.05C323.327 414.417 323.51 414.883 323.51 415.45C323.51 415.983 323.327 416.45 322.96 416.85C322.593 417.217 322.127 417.4 321.56 417.4H315.91V432.5C315.91 433.8 316.21 434.633 316.81 435C317.443 435.333 318.227 435.5 319.16 435.5C319.827 435.5 320.493 435.4 321.16 435.2C321.293 435.167 321.427 435.133 321.56 435.1C321.727 435.067 321.927 435.05 322.16 435.05C322.627 435.05 323.043 435.233 323.41 435.6C323.777 435.933 323.96 436.35 323.96 436.85C323.96 437.617 323.577 438.2 322.81 438.6C321.51 439.2 320.127 439.5 318.66 439.5ZM331.202 439.25C330.569 439.25 330.035 439.033 329.602 438.6C329.169 438.167 328.952 437.633 328.952 437V404.55C328.952 403.917 329.169 403.383 329.602 402.95C330.035 402.483 330.569 402.25 331.202 402.25C331.835 402.25 332.369 402.483 332.802 402.95C333.269 403.383 333.502 403.917 333.502 404.55V417.6C334.769 416.2 336.135 415.083 337.602 414.25C339.069 413.417 340.802 413 342.802 413C344.635 413 346.219 413.433 347.552 414.3C348.919 415.167 349.952 416.35 350.652 417.85C351.385 419.35 351.752 421 351.752 422.8V437C351.752 437.633 351.519 438.167 351.052 438.6C350.619 439.033 350.085 439.25 349.452 439.25C348.819 439.25 348.285 439.033 347.852 438.6C347.419 438.167 347.202 437.633 347.202 437V423.3C347.202 419.233 345.369 417.2 341.702 417.2C340.035 417.2 338.535 417.633 337.202 418.5C335.902 419.367 334.669 420.533 333.502 422V437C333.502 437.633 333.269 438.167 332.802 438.6C332.369 439.033 331.835 439.25 331.202 439.25ZM367.671 439.5C364.337 439.5 361.304 438.75 358.571 437.25C358.004 436.85 357.721 436.3 357.721 435.6C357.721 435.067 357.904 434.6 358.271 434.2C358.637 433.8 359.104 433.6 359.671 433.6C359.971 433.6 360.271 433.667 360.571 433.8C361.637 434.267 362.704 434.633 363.771 434.9C364.837 435.167 366.037 435.3 367.371 435.3C371.071 435.3 372.921 434.117 372.921 431.75C372.921 430.983 372.487 430.4 371.621 430C370.787 429.6 369.404 429.15 367.471 428.65C365.504 428.183 363.871 427.7 362.571 427.2C361.304 426.7 360.204 425.95 359.271 424.95C358.371 423.917 357.921 422.567 357.921 420.9C357.921 418.567 358.754 416.667 360.421 415.2C362.121 413.733 364.537 413 367.671 413C370.237 413 372.654 413.417 374.921 414.25C375.387 414.383 375.737 414.633 375.971 415C376.237 415.367 376.371 415.75 376.371 416.15C376.371 416.683 376.171 417.15 375.771 417.55C375.404 417.95 374.937 418.15 374.371 418.15C374.204 418.15 373.987 418.117 373.721 418.05C371.787 417.45 369.887 417.15 368.021 417.15C366.221 417.15 364.804 417.483 363.771 418.15C362.771 418.783 362.271 419.617 362.271 420.65C362.271 421.65 362.737 422.383 363.671 422.85C364.604 423.317 366.054 423.767 368.021 424.2C369.987 424.7 371.587 425.2 372.821 425.7C374.054 426.167 375.104 426.917 375.971 427.95C376.871 428.983 377.321 430.367 377.321 432.1C377.321 434.233 376.471 436 374.771 437.4C373.104 438.8 370.737 439.5 367.671 439.5Z" fill="white"/>
</svg>
